# xmcd
#
# Track frame offsets: 
#        150
#        19790
#        38714
#        65618
#        89168
#        107695
#        128447
#        151789
#        169744
#        191508
#        217364
#        240557
#        252306
#        275990
#        280790
#
# Disc length: 4422 seconds
#
# Revision: 1
# Processed by: cddbd v1.5.2PL0 Copyright (c) Steve Scherf et al.
# Submitted via: ExactAudioCopy v1.1
#
DISCID=da11440f
DTITLE=Jan Gerfast Trio - Electric Blues Power
DYEAR=2012
DGENRE=Blues Rock
TTITLE0=MTV
TTITLE1=Stranded In Hell
TTITLE2=Hallelujah
TTITLE3=F'n Up The Blues
TTITLE4=Second Coming
TTITLE5=Looking For Adventure
TTITLE6=Longing For The Woods Back Home
TTITLE7=Tell Me
TTITLE8=I Can't Resist You
TTITLE9=Shake Rattle N' Roll
TTITLE10=Everythings Gonna Be Fine
TTITLE11=The Stereo Distorted - I
TTITLE12=The Stereo Distorted - II
TTITLE13=The Stereo Distorted - III
TTITLE14=Voodoo Child (Live)
EXTD=
EXTT0=
EXTT1=
EXTT2=
EXTT3=
EXTT4=
EXTT5=
EXTT6=
EXTT7=
EXTT8=
EXTT9=
EXTT10=
EXTT11=
EXTT12=
EXTT13=
EXTT14=
PLAYORDER=
